Coordinates
version=1
nRows=16
nColumns=28
inDegrees=yes

Units are S.I. units (second, meters, Newtons, ...)
Angles are in degrees.

endheader
time	pelvis_tilt	pelvis_list	pelvis_rotation	pelvis_tx	pelvis_ty	pelvis_tz	hip_flexion_r	hip_adduction_r	hip_rotation_r	knee_angle_r	ankle_angle_r	subtalar_angle_r	mtp_angle_r	hip_flexion_l	hip_adduction_l	hip_rotation_l	knee_angle_l	socket_flexion	socket_adduction	socket_rotation	socket_tx	socket_ty	socket_tz	foot_flex	lumbar_extension	lumbar_bending	lumbar_rotation
      0.53333333	     -0.97730526	     -7.33081539	      7.04316033	     -0.01495634	      0.95941195	      0.23762669	     24.97256147	      6.94618146	     -4.32185502	     -9.11340174	      4.91856767	    -15.60752721	     -3.01319972	    -19.02234234	     -7.54885238	    -10.42144793	    -17.49888618	     -6.77231900	     -6.53447216	     19.57890342	     -0.01331149	     -0.00036945	     -0.00599263	     10.17114861	     -7.34728931	      8.12818341	    -18.45625010
      0.53750000	     -0.97766099	     -7.33062786	      7.04279477	     -0.01496977	      0.95941340	      0.23762616	     24.97233784	      6.94606565	     -4.32193088	     -9.11341499	      4.91866053	    -15.60745953	     -3.01302730	    -19.02255414	     -7.54924537	    -10.42137983	    -17.49892622	     -6.77222954	     -6.53470216	     19.57910412	     -0.01330883	     -0.00036667	     -0.00598970	     10.17110340	     -7.34707377	      8.12819145	    -18.45619128
      0.54166667	     -0.90548527	     -7.45243117	      7.03042052	     -0.00847932	      0.95802745	      0.23779547	     25.32593280	      7.16645309	     -4.31223004	    -10.23279029	      4.50987018	    -15.48728051	     -2.78301525	    -19.31231218	     -7.73534156	    -10.60647962	    -17.69536634	     -6.57547251	     -6.55111483	     19.68927039	     -0.01297531	     -0.00031736	     -0.00606465	     10.23382585	     -7.40525058	      8.32145986	    -18.46809249
      0.54583333	     -0.85947818	     -7.55509921	      6.98974383	     -0.00196238	      0.95664621	      0.23800211	     25.72947384	      7.37005780	     -4.27912102	    -11.42414702	      4.04495947	    -15.38623077	     -2.51767970	    -19.57765407	     -7.88625222	    -10.79628580	    -17.89839964	     -6.37246863	     -6.55956154	     19.78967438	     -0.01272500	     -0.00021927	     -0.00608106	     10.26689774	     -7.43724786	      8.49328534	    -18.46614187
      0.55000000	     -0.83710383	     -7.64075587	      6.91848035	      0.00456127	      0.95524829	      0.23828312	     26.16555123	      7.56547992	     -4.20855398	    -12.65581325	      3.54599725	    -15.30142484	     -2.21345164	    -19.80083675	     -8.00788464	    -10.99000434	    -18.12195535	     -6.14581817	     -6.56736858	     19.87131061	     -0.01245804	     -0.00014593	     -0.00611957	     10.26983848	     -7.44604813	      8.63877075	    -18.44526947
      0.55416667	     -0.84976930	     -7.70844886	      6.81030069	      0.01111416	      0.95383064	      0.23863410	     26.64814693	      7.74922508	     -4.10469686	    -13.93195123	      3.01162117	    -15.23698798	     -1.84892407	    -19.97720880	     -8.08846352	    -11.19642310	    -18.36372340	     -5.90261147	     -6.56638994	     19.95405036	     -0.01219673	     -0.00006996	     -0.00603895	     10.24445925	     -7.41696460	      8.75819462	    -18.39642434
      0.55833333	     -1.54416729	     -7.63638329	      6.27051097	      0.01789601	      0.95143225	      0.23932229	     27.98370121	      7.83143271	     -3.65554818	    -15.51161592	      2.36573587	    -15.35493032	      0.58817257	    -19.36155938	     -7.67708276	    -12.10505444	    -18.70416673	     -5.47978018	     -6.93868848	     20.51595068	     -0.01058839	      0.00033035	     -0.00466684	     10.14520392	     -6.61257717	      8.61459696	    -17.66485364
      0.56250000	     -1.36083772	     -7.67060896	      6.32486509	      0.02417084	      0.95048617	      0.23970526	     28.17970491	      7.98424104	     -3.50389936	    -16.63679723	      1.80494781	    -15.30516361	      0.75627151	    -19.53084805	     -7.88970759	    -12.10122124	    -19.07794538	     -5.13871749	     -6.82850400	     20.55745066	     -0.00981494	      0.00051454	     -0.00537826	     10.09225472	     -6.85649788	      8.67418440	    -17.80294426
      0.56666667	     -1.27980523	     -7.74810629	      6.26185945	      0.03077982	      0.94938757	      0.23999041	     28.49151484	      8.17391021	     -3.40337544	    -17.82085359	      1.23660378	    -15.31260221	      0.95516541	    -19.73740973	     -7.99146311	    -12.17901192	    -19.37456798	     -4.82566666	     -6.82011909	     20.53865066	     -0.00972182	      0.00059798	     -0.00530643	      9.95264033	     -6.92757422	      8.82340005	    -17.87862894
      0.57083333	     -1.25437653	     -7.81095032	      6.14591196	      0.03741532	      0.94826821	      0.24044409	     28.86337644	      8.37727108	     -3.23905986	    -19.02832077	      0.68254069	    -15.34408352	      1.20711430	    -19.86954709	     -8.07591554	    -12.29342729	    -19.69650518	     -4.49333685	     -6.78681471	     20.50655004	     -0.00967761	      0.00067795	     -0.00534193	      9.77847692	     -6.93757757	      8.93365694	    -17.89123496
      0.57500000	     -1.92323956	     -7.64526679	      5.65538980	      0.04384911	      0.94624022	      0.24162314	     30.05001082	      8.49496089	     -2.39724896	    -20.40415068	     -0.26003099	    -16.21171923	      3.34924576	    -19.03661808	     -7.72999405	    -12.85981834	    -20.21337127	     -3.94236083	     -6.94831498	     20.87154032	     -0.00786906	      0.00114699	     -0.00483452	      9.57751362	     -6.22961614	      8.61446256	    -17.29422983
      0.57916667	     -1.77733559	     -7.77324445	      5.61691013	      0.05055304	      0.94547479	      0.24188474	     30.20950162	      8.72807456	     -2.35455617	    -21.46795118	     -0.67666312	    -16.19573296	      3.45384646	    -19.19643319	     -7.87936436	    -12.91726931	    -20.59196076	     -3.53863683	     -6.91931806	     20.75789947	     -0.00760949	      0.00129120	     -0.00462486	      9.31172598	     -6.36153799	      8.82506569	    -17.38507548
      0.58333333	     -1.67617229	     -7.88678554	      5.54537808	      0.05725941	      0.94473319	      0.24231429	     30.39905223	      8.98218164	     -2.21818817	    -22.52506871	     -1.04415785	    -16.18293965	      3.56596275	    -19.29031797	     -8.01658527	    -12.95775976	    -20.99816292	     -3.11578673	     -6.86775740	     20.66217032	     -0.00744742	      0.00143070	     -0.00442213	      9.00794101	     -6.45058924	      8.99794702	    -17.42275360
      0.58750000	     -1.63827505	     -7.96902547	      5.41595883	      0.06410816	      0.94399229	      0.24295080	     30.63920200	      9.22975524	     -2.06071741	    -23.60070242	     -1.38569480	    -16.22316164	      3.71576062	    -19.31521156	     -8.15093041	    -13.05320555	    -21.43490751	     -2.66829448	     -6.78709447	     20.54424134	     -0.00752241	      0.00161527	     -0.00464688	      8.65315418	     -6.46957331	      9.11027167	    -17.41619189
      0.59166667	     -1.62102060	     -8.06185348	      5.27487732	      0.07077630	      0.94321729	      0.24349341	     30.88601103	      9.48632413	     -1.85308958	    -24.62395769	     -1.65292155	    -16.30278628	      3.88444049	    -19.23367032	     -8.26117378	    -13.15553643	    -21.91151700	     -2.17766006	     -6.70984113	     20.40632673	     -0.00721845	      0.00159585	     -0.00464253	      8.26069372	     -6.46265885	      9.20872570	    -17.36332852
      0.59583333	     -2.19153964	     -8.07224865	      4.86974709	      0.07745985	      0.94167977	      0.24460314	     31.80327726	      9.78726146	     -1.22771245	    -25.78966882	     -1.99446779	    -17.01830247	      4.67086928	    -18.40117746	     -8.16067890	    -13.51414719	    -22.50814565	     -1.54385011	     -6.74753981	     20.44230515	     -0.00599905	      0.00183737	     -0.00423888	      7.89302242	     -5.80698898	      9.13484031	    -16.90971857
